<svg width="106" height="59" viewBox="0 0 106 59" fill="none" xmlns="http://www.w3.org/2000/svg">
<path d="M0.74527 2.5H102.169V19.9014" stroke="#7E4235" stroke-width="5"/>
<path d="M2.85095 2.5V20.8864" stroke="#7E4235" stroke-width="5"/>
<path d="M0.74527 56.3459H102.169V38.9445" stroke="#7E4235" stroke-width="5"/>
<path d="M2.85095 56.3459V37.9595" stroke="#7E4235" stroke-width="5"/>
<path d="M2.5 25.8113V33.3629" stroke="#7E4235" stroke-width="5"/>
<path d="M102.52 25.483V33.0346" stroke="#7E4235" stroke-width="5"/>
<rect x="4.68408" y="3.42125" width="96.8611" height="51.2193" fill="#7E4235"/>
<path d="M44.2849 20.7204V21.2004C43.7409 21.2164 43.3249 21.2804 43.0369 21.3924C42.7649 21.4884 42.5809 21.6804 42.4849 21.9684C42.3889 22.2404 42.3409 22.6724 42.3409 23.2644V35.1684C42.3409 35.7444 42.3889 36.1764 42.4849 36.4644C42.5809 36.7524 42.7649 36.9444 43.0369 37.0404C43.3249 37.1364 43.7409 37.2004 44.2849 37.2324V37.7124C43.9169 37.6804 43.4529 37.6644 42.8929 37.6644C42.3489 37.6484 41.7969 37.6404 41.2369 37.6404C40.6129 37.6404 40.0289 37.6484 39.4849 37.6644C38.9409 37.6644 38.5009 37.6804 38.1649 37.7124V37.2324C38.7089 37.2004 39.1169 37.1364 39.3889 37.0404C39.6769 36.9444 39.8689 36.7524 39.9649 36.4644C40.0609 36.1764 40.1089 35.7444 40.1089 35.1684V21.9684L40.2049 22.0404L34.3249 37.8324H33.9409L27.8929 22.2564V34.9284C27.8929 35.5044 27.9409 35.9604 28.0369 36.2964C28.1489 36.6164 28.3569 36.8484 28.6609 36.9924C28.9809 37.1204 29.4529 37.2004 30.0769 37.2324V37.7124C29.7889 37.6804 29.4129 37.6644 28.9489 37.6644C28.4849 37.6484 28.0449 37.6404 27.6289 37.6404C27.2289 37.6404 26.8209 37.6484 26.4049 37.6644C26.0049 37.6644 25.6689 37.6804 25.3969 37.7124V37.2324C25.9409 37.2004 26.3489 37.1204 26.6209 36.9924C26.9089 36.8484 27.1009 36.6164 27.1969 36.2964C27.2929 35.9604 27.3409 35.5044 27.3409 34.9284V23.2644C27.3409 22.6724 27.2929 22.2404 27.1969 21.9684C27.1009 21.6804 26.9089 21.4884 26.6209 21.3924C26.3489 21.2804 25.9409 21.2164 25.3969 21.2004V20.7204C25.6689 20.7364 26.0049 20.7524 26.4049 20.7684C26.8209 20.7844 27.2289 20.7924 27.6289 20.7924C27.9809 20.7924 28.3409 20.7844 28.7089 20.7684C29.0929 20.7524 29.4129 20.7364 29.6689 20.7204L35.1169 35.0724L34.7089 35.2644L40.1089 20.7924C40.3009 20.7924 40.4849 20.7924 40.6609 20.7924C40.8529 20.7924 41.0449 20.7924 41.2369 20.7924C41.7969 20.7924 42.3489 20.7844 42.8929 20.7684C43.4529 20.7524 43.9169 20.7364 44.2849 20.7204ZM52.6632 20.8644C53.2712 20.8644 53.7752 20.9364 54.1752 21.0804C54.5752 21.2084 54.9032 21.3764 55.1592 21.5844C55.3672 21.7444 55.5352 21.9204 55.6632 22.1124C55.7912 22.3044 55.8872 22.4964 55.9512 22.6884C56.0152 22.8804 56.0472 23.0644 56.0472 23.2404C56.0472 23.6404 55.9032 23.9524 55.6152 24.1764C55.3432 24.4004 55.0392 24.5124 54.7032 24.5124C54.3832 24.5124 54.0952 24.4084 53.8392 24.2004C53.5832 23.9924 53.4552 23.6964 53.4552 23.3124C53.4552 22.9604 53.5752 22.6644 53.8152 22.4244C54.0552 22.1684 54.3592 22.0244 54.7272 21.9924C54.6632 21.7844 54.4632 21.6084 54.1272 21.4644C53.8072 21.3044 53.3992 21.2244 52.9032 21.2244C52.0872 21.2244 51.4152 21.4724 50.8872 21.9684C50.3752 22.4484 50.1192 23.1524 50.1192 24.0804C50.1192 24.5284 50.1992 24.9844 50.3592 25.4484C50.5352 25.9124 50.8632 26.3684 51.3432 26.8164C51.6152 26.7684 51.8952 26.7364 52.1832 26.7204C52.4712 26.6884 52.6872 26.6724 52.8312 26.6724C53.1192 26.6724 53.3512 26.7204 53.5272 26.8164C53.7032 26.9124 53.7912 27.0484 53.7912 27.2244C53.7912 27.3684 53.7272 27.4804 53.5992 27.5604C53.4872 27.6404 53.3272 27.6804 53.1192 27.6804C52.8152 27.6804 52.4952 27.6164 52.1592 27.4884C51.8232 27.3444 51.5592 27.2324 51.3672 27.1524C50.4392 27.4244 49.6872 27.8724 49.1112 28.4964C48.5352 29.1044 48.2472 29.9684 48.2472 31.0884C48.2472 32.1924 48.5352 33.1284 49.1112 33.8964C49.6872 34.6644 50.4552 35.2564 51.4152 35.6724C52.3912 36.0724 53.4792 36.2724 54.6792 36.2724C55.5272 36.2724 56.3272 36.1764 57.0792 35.9844C57.8472 35.7764 58.5192 35.4804 59.0952 35.0964C59.6872 34.7124 60.1512 34.2564 60.4872 33.7284C60.8232 33.1844 60.9912 32.5684 60.9912 31.8804C60.9912 31.5764 60.9272 31.1924 60.7992 30.7284C60.6712 30.2484 60.4072 29.7844 60.0072 29.3364C59.6072 28.8724 58.9912 28.5124 58.1592 28.2564L58.4472 28.0164C59.6152 28.3684 60.4472 28.9364 60.9432 29.7204C61.4392 30.4884 61.6872 31.3524 61.6872 32.3124C61.6872 33.2724 61.3992 34.1924 60.8232 35.0724C60.2472 35.9524 59.4152 36.6724 58.3272 37.2324C57.2392 37.7764 55.9192 38.0484 54.3672 38.0484C53.3272 38.0484 52.3352 37.9124 51.3912 37.6404C50.4632 37.3684 49.6392 36.9764 48.9192 36.4644C48.1992 35.9364 47.6312 35.3044 47.2152 34.5684C46.7992 33.8324 46.5912 33.0004 46.5912 32.0724C46.5912 31.2084 46.7592 30.4724 47.0952 29.8644C47.4312 29.2404 47.8472 28.7284 48.3432 28.3284C48.8392 27.9284 49.3352 27.6244 49.8312 27.4164C50.3272 27.1924 50.7272 27.0404 51.0312 26.9604C50.5032 26.7204 50.0552 26.4404 49.6872 26.1204C49.3352 25.7844 49.0632 25.4244 48.8712 25.0404C48.6952 24.6404 48.6072 24.2484 48.6072 23.8644C48.6072 23.4804 48.6952 23.1124 48.8712 22.7604C49.0472 22.3924 49.3032 22.0644 49.6392 21.7764C49.9752 21.4884 50.3912 21.2644 50.8872 21.1044C51.3992 20.9444 51.9912 20.8644 52.6632 20.8644ZM61.3992 20.3844C62.3912 20.3844 63.2232 20.6724 63.8952 21.2484C64.5672 21.8084 64.9032 22.6004 64.9032 23.6244C64.9032 24.1684 64.7992 24.6564 64.5912 25.0884C64.3992 25.5044 64.1272 25.8724 63.7752 26.1924C63.4392 26.5124 63.0552 26.7764 62.6232 26.9844C62.2552 27.1604 61.7672 27.3524 61.1592 27.5604C60.5672 27.7684 59.9272 27.9764 59.2392 28.1844C58.5672 28.3924 57.9192 28.6004 57.2952 28.8084C56.6872 29.0004 56.1912 29.1684 55.8072 29.3124C55.2152 29.5364 54.7112 29.8164 54.2952 30.1524C53.8952 30.4724 53.6952 30.8884 53.6952 31.4004C53.6952 31.8164 53.8152 32.1684 54.0552 32.4564C54.2952 32.7444 54.5832 32.9604 54.9192 33.1044C55.2712 33.2484 55.5992 33.3204 55.9032 33.3204C56.0472 33.3204 56.2232 33.3044 56.4312 33.2724C56.6552 33.2244 56.8552 33.1604 57.0312 33.0804C57.2072 33.0004 57.3112 32.9044 57.3432 32.7924C57.0872 32.7444 56.8312 32.6324 56.5752 32.4564C56.3352 32.2644 56.2152 31.9684 56.2152 31.5684C56.2152 31.1844 56.3432 30.8804 56.5992 30.6564C56.8552 30.4324 57.1672 30.3204 57.5352 30.3204C57.9192 30.3204 58.2232 30.4404 58.4472 30.6804C58.6872 30.9204 58.8072 31.2324 58.8072 31.6164C58.8072 32.0644 58.6552 32.4484 58.3512 32.7684C58.0632 33.0724 57.6952 33.3044 57.2472 33.4644C56.8152 33.6084 56.3832 33.6804 55.9512 33.6804C55.5032 33.6804 55.0472 33.5844 54.5832 33.3924C54.1192 33.2004 53.7352 32.9044 53.4312 32.5044C53.1272 32.0884 52.9752 31.5444 52.9752 30.8724C52.9752 30.3124 53.0952 29.8164 53.3352 29.3844C53.5912 28.9524 53.9672 28.5684 54.4632 28.2324C54.9592 27.8964 55.5672 27.6084 56.2872 27.3684C56.7672 27.2084 57.3512 27.0324 58.0392 26.8404C58.7272 26.6484 59.4312 26.4404 60.1512 26.2164C60.8872 25.9924 61.5512 25.7444 62.1432 25.4724C62.9432 25.1044 63.4872 24.7284 63.7752 24.3444C64.0632 23.9604 64.2072 23.5684 64.2072 23.1684C64.2072 22.7044 64.0792 22.2964 63.8232 21.9444C63.5672 21.5764 63.2232 21.2884 62.7912 21.0804C62.3752 20.8564 61.9192 20.7444 61.4232 20.7444C61.2312 20.7444 61.0712 20.7604 60.9432 20.7924C60.8152 20.8244 60.7352 20.8804 60.7032 20.9604C60.9272 21.0724 61.0952 21.2324 61.2072 21.4404C61.3192 21.6484 61.3752 21.8564 61.3752 22.0644C61.3752 22.4004 61.2392 22.6804 60.9672 22.9044C60.7112 23.1284 60.3992 23.2404 60.0312 23.2404C59.7272 23.2404 59.4392 23.1444 59.1672 22.9524C58.8952 22.7444 58.7592 22.4404 58.7592 22.0404C58.7592 21.6244 58.8952 21.2964 59.1672 21.0564C59.4552 20.8164 59.7992 20.6484 60.1992 20.5524C60.6152 20.4404 61.0152 20.3844 61.3992 20.3844ZM73.1331 20.6004L78.9891 35.6964C79.2291 36.3044 79.5011 36.7124 79.8051 36.9204C80.1091 37.1124 80.3891 37.2164 80.6451 37.2324V37.7124C80.3251 37.6804 79.9331 37.6644 79.4691 37.6644C79.0051 37.6484 78.5411 37.6404 78.0771 37.6404C77.4531 37.6404 76.8691 37.6484 76.3251 37.6644C75.7811 37.6644 75.3411 37.6804 75.0051 37.7124V37.2324C75.8211 37.2004 76.3411 37.0644 76.5651 36.8244C76.7891 36.5684 76.7411 36.0324 76.4211 35.2164L71.9571 23.2884L72.3411 22.9764L68.1651 33.8244C67.9091 34.4644 67.7571 35.0084 67.7091 35.4564C67.6611 35.8884 67.7011 36.2324 67.8291 36.4884C67.9731 36.7444 68.2051 36.9284 68.5251 37.0404C68.8611 37.1524 69.2771 37.2164 69.7731 37.2324V37.7124C69.3251 37.6804 68.8531 37.6644 68.3571 37.6644C67.8771 37.6484 67.4291 37.6404 67.0131 37.6404C66.6131 37.6404 66.2691 37.6484 65.9811 37.6644C65.7091 37.6644 65.4531 37.6804 65.2131 37.7124V37.2324C65.5331 37.1524 65.8611 36.9684 66.1971 36.6804C66.5331 36.3764 66.8371 35.8644 67.1091 35.1444L72.7491 20.6004C72.8131 20.6004 72.8771 20.6004 72.9411 20.6004C73.0051 20.6004 73.0691 20.6004 73.1331 20.6004ZM76.0611 30.8004V31.2804H68.9091L69.1491 30.8004H76.0611Z" fill="white"/>
</svg>
